<svg width="268" height="52" viewBox="0 0 268 52" fill="none" xmlns="http://www.w3.org/2000/svg">
<path d="M229.375 26.1025V33.7552H224.811V26.3591C224.811 25.2715 224.294 24.5319 223.376 24.5319C223.004 24.5366 222.641 24.6494 222.332 24.8564C222.023 25.0634 221.781 25.3557 221.635 25.6978V33.7552H217.098V20.2682H221.161L221.383 21.6169C221.953 20.6641 223.097 20.0072 224.659 20.0072C227.765 20.0116 229.375 22.3565 229.375 26.1025Z" fill="#243982"/>
<path d="M237.545 20.2639H240.891V24.3361H237.545V28.2778C237.531 28.4666 237.557 28.6564 237.623 28.8338C237.689 29.0113 237.793 29.1723 237.928 29.3056C238.062 29.4389 238.224 29.5413 238.402 29.6057C238.581 29.6701 238.771 29.6951 238.959 29.6787C239.479 29.6855 239.991 29.5581 240.447 29.3089L241.535 33.1201C240.639 33.7145 239.586 34.0267 238.511 34.0163C235.091 34.0163 232.981 31.9541 232.981 28.33V24.3361H230.85V20.2639H232.981V15.848H237.545V20.2639Z" fill="#243982"/>
<path d="M251.067 21.6648L251.315 20.2639H255.383V33.7509H251.315L251.067 32.3718C250.475 33.2984 249.357 34.012 247.695 34.012C244.45 34.012 242.266 31.0492 242.266 27.0031C242.266 22.957 244.441 19.9985 247.695 19.9985C249.357 20.0116 250.475 20.7164 251.067 21.6648ZM246.877 27.0074C246.877 28.8086 247.673 29.8136 248.913 29.8136C249.316 29.8064 249.708 29.6858 250.045 29.4657C250.382 29.2456 250.651 28.9349 250.819 28.5693V25.4499C250.651 25.0843 250.382 24.7736 250.045 24.5535C249.708 24.3334 249.316 24.2128 248.913 24.2056C247.673 24.2056 246.877 25.2324 246.877 27.0074Z" fill="#243982"/>
<path d="M268 21.4821L266.412 24.7364C265.558 24.0245 264.498 23.6065 263.388 23.5443C262.57 23.5443 262.222 23.8097 262.222 24.2578C262.222 24.7059 262.496 24.893 264.232 25.3411C266.708 26.0024 267.948 27.2467 267.948 29.3089C267.948 32.1151 265.772 34.0163 262.096 34.0163C260.19 34.0163 258.28 33.4377 257.188 32.4849L258.803 29.1784C259.714 30.002 260.894 30.4659 262.122 30.4836C262.966 30.4836 263.388 30.2704 263.388 29.7701C263.388 29.2698 263.166 29 261.648 28.6041C258.968 27.8906 257.654 26.7812 257.654 24.6885C257.637 21.878 259.734 20.0116 263.366 20.0116C265.032 19.9657 266.665 20.4839 268 21.4821Z" fill="#243982"/>
<path d="M147.204 49.0956H145.129L144.798 48.2603H142.405L142.075 49.0956H140.004L143.571 41.817H143.611L147.204 49.0956ZM142.949 46.8768H144.254L143.602 45.2062L142.949 46.8768Z" fill="#727272"/>
<path d="M155.162 42.5958L154.291 44.1446C153.778 43.7238 153.137 43.4906 152.473 43.4833C151.946 43.4833 151.551 43.6791 151.551 44.0184C151.551 44.2882 151.733 44.4839 152.686 44.6797C154.622 45.0669 155.157 45.7413 155.157 46.8289C155.157 48.269 154.109 49.2218 152.338 49.2218C151.288 49.2536 150.262 48.9043 149.449 48.2385L150.441 46.7245C150.957 47.2494 151.659 47.5496 152.395 47.5599C153.03 47.5599 153.308 47.3554 153.308 47.003C153.308 46.6506 153.104 46.52 152.142 46.3243C150.215 45.924 149.688 45.1452 149.688 44.1141C149.688 42.809 150.859 41.817 152.482 41.817C153.433 41.8019 154.367 42.0732 155.162 42.5958Z" fill="#727272"/>
<path d="M160.744 49.0956H159.152L159.06 48.5997C158.906 48.8031 158.704 48.9644 158.471 49.0686C158.238 49.1728 157.983 49.2165 157.729 49.1957C156.532 49.1957 155.928 48.3256 155.928 46.9464V44.1359H157.72V46.8507C157.72 47.2466 157.894 47.5207 158.264 47.5207C158.408 47.5184 158.549 47.4766 158.671 47.3999C158.793 47.3232 158.891 47.2145 158.956 47.0856V44.1272H160.744V49.0956Z" fill="#727272"/>
<path d="M165.007 44.6493L165.103 44.136H166.7V49.0957H165.103L165.007 48.591C164.855 48.7904 164.657 48.9498 164.43 49.0551C164.202 49.1605 163.952 49.2088 163.702 49.1958C162.427 49.1958 161.57 48.1038 161.57 46.6158C161.57 45.1279 162.44 44.0359 163.702 44.0359C163.953 44.0223 164.204 44.0713 164.432 44.1783C164.66 44.2854 164.857 44.4472 165.007 44.6493ZM163.363 46.6158C163.363 47.2771 163.672 47.6469 164.159 47.6469C164.311 47.6492 164.462 47.6099 164.593 47.5333C164.725 47.4566 164.834 47.3455 164.907 47.2119V46.0633C164.834 45.9297 164.725 45.8186 164.593 45.7419C164.462 45.6653 164.311 45.626 164.159 45.6282C163.672 45.5847 163.363 45.9545 163.363 46.6158Z" fill="#727272"/>
<path d="M171.894 47.4728H174.678V49.0956H170.045V41.9475H171.894V47.4728Z" fill="#727272"/>
<path d="M180.387 46.6244C180.399 47.155 180.253 47.6771 179.967 48.1243C179.681 48.5714 179.268 48.9232 178.782 49.1349C178.295 49.3466 177.756 49.4085 177.234 49.3128C176.712 49.217 176.231 48.968 175.851 48.5974C175.471 48.2268 175.21 47.7514 175.101 47.2319C174.993 46.7124 175.041 46.1724 175.241 45.6806C175.441 45.1889 175.782 44.7678 176.222 44.4709C176.662 44.1741 177.18 44.015 177.711 44.014C178.062 43.9966 178.412 44.0516 178.74 44.1757C179.068 44.2999 179.367 44.4904 179.619 44.7355C179.87 44.9805 180.068 45.2747 180.2 45.5998C180.332 45.9248 180.396 46.2736 180.387 46.6244ZM176.854 46.6244C176.854 47.2379 177.198 47.6468 177.724 47.6468C178.251 47.6468 178.594 47.2379 178.594 46.6244C178.594 46.011 178.246 45.5846 177.724 45.5846C177.202 45.5846 176.854 46.0023 176.854 46.6244Z" fill="#727272"/>
<path d="M179.182 50.9012L180.117 49.6395C180.187 49.7144 180.271 49.7746 180.364 49.8164C180.458 49.8582 180.559 49.8809 180.661 49.8831C180.74 49.8899 180.819 49.8792 180.894 49.8518C180.968 49.8243 181.036 49.7808 181.091 49.7243C181.147 49.6678 181.19 49.5997 181.216 49.5249C181.242 49.4501 181.252 49.3704 181.244 49.2915V44.1359H183.036V49.1609C183.042 49.4665 182.985 49.77 182.869 50.0526C182.753 50.3353 182.58 50.5911 182.361 50.8043C182.142 51.0176 181.881 51.1837 181.596 51.2924C181.31 51.4011 181.005 51.4501 180.7 51.4363C180.144 51.456 179.602 51.2649 179.182 50.9012ZM183.162 42.5871C183.163 42.7863 183.105 42.9812 182.995 43.1471C182.885 43.313 182.728 43.4425 182.544 43.5191C182.36 43.5957 182.158 43.616 181.962 43.5774C181.767 43.5387 181.588 43.4429 181.447 43.3021C181.306 43.1613 181.21 42.9818 181.172 42.7865C181.133 42.5911 181.153 42.3887 181.23 42.2049C181.306 42.021 181.436 41.8641 181.602 41.754C181.768 41.6439 181.963 41.5856 182.162 41.5865C182.295 41.5816 182.427 41.6041 182.55 41.6527C182.674 41.7013 182.786 41.7748 182.88 41.8687C182.974 41.9626 183.048 42.0749 183.096 42.1985C183.145 42.3221 183.167 42.4544 183.162 42.5871Z" fill="#727272"/>
<path d="M187.304 44.6492L187.4 44.1359H188.997V49.0956H187.4L187.304 48.5909C187.153 48.7909 186.955 48.9506 186.727 49.0561C186.499 49.1615 186.249 49.2094 185.999 49.1956C184.724 49.1956 183.867 48.1036 183.867 46.6157C183.867 45.1278 184.737 44.0358 185.999 44.0358C186.25 44.0214 186.501 44.07 186.729 44.1771C186.957 44.2842 187.155 44.4465 187.304 44.6492ZM185.66 46.6157C185.66 47.277 185.973 47.6468 186.456 47.6468C186.608 47.6467 186.758 47.6064 186.89 47.53C187.022 47.4537 187.132 47.3439 187.208 47.2118V46.0632C187.132 45.931 187.022 45.8213 186.89 45.7449C186.758 45.6686 186.608 45.6283 186.456 45.6281C185.973 45.5846 185.66 45.9544 185.66 46.6157Z" fill="#727272"/>
<path d="M197.158 49.0956H195.562L195.466 48.5909C195.307 48.7944 195.1 48.9559 194.864 49.0613C194.629 49.1667 194.371 49.2129 194.113 49.1957C192.829 49.1957 191.938 48.1037 191.938 46.6157C191.938 45.1278 192.808 44.0358 194.113 44.0358C194.345 44.0201 194.578 44.0556 194.796 44.1398C195.013 44.224 195.209 44.3548 195.37 44.5231V41.7039H197.158V49.0956ZM193.765 46.6157C193.765 47.277 194.095 47.6468 194.591 47.6468C194.748 47.6513 194.904 47.6133 195.041 47.5367C195.178 47.4601 195.292 47.3478 195.37 47.2118V46.0719C195.296 45.9302 195.184 45.8117 195.046 45.7296C194.909 45.6475 194.751 45.6048 194.591 45.6064C194.095 45.5846 193.765 45.9544 193.765 46.6157Z" fill="#727272"/>
<path d="M202.928 46.5505V47.0552H199.786C199.808 47.4902 200.178 47.7556 200.722 47.7556C200.896 47.7612 201.07 47.7273 201.23 47.6565C201.389 47.5857 201.531 47.4798 201.644 47.3467L202.841 48.2168C202.579 48.5436 202.243 48.8033 201.861 48.9743C201.479 49.1453 201.062 49.2227 200.643 49.2C200.296 49.2206 199.948 49.1688 199.622 49.0482C199.295 48.9275 198.997 48.7404 198.747 48.4988C198.496 48.2573 198.298 47.9664 198.166 47.6445C198.033 47.3226 197.969 46.9768 197.977 46.6288C197.96 46.2815 198.016 45.9346 198.141 45.6103C198.266 45.286 198.458 44.9915 198.704 44.7457C198.95 44.4998 199.244 44.3081 199.568 44.1829C199.893 44.0577 200.24 44.0016 200.587 44.0184C202.192 44.0358 202.928 45.1844 202.928 46.5505ZM199.786 46.0545H201.17C201.176 45.9612 201.164 45.8675 201.133 45.7791C201.102 45.6908 201.054 45.6095 200.991 45.5404C200.928 45.4713 200.852 45.4156 200.766 45.3769C200.681 45.3381 200.589 45.317 200.496 45.3149C200.401 45.3155 200.308 45.3348 200.221 45.3717C200.134 45.4086 200.055 45.4624 199.989 45.53C199.923 45.5976 199.871 45.6776 199.837 45.7654C199.802 45.8532 199.785 45.947 199.786 46.0415V46.0545Z" fill="#727272"/>
<path d="M211.724 43.5703H209.549V49.0956H207.7V43.5703H205.524V41.9475H211.733L211.724 43.5703Z" fill="#727272"/>
<path d="M214.291 42.5871C214.291 42.785 214.233 42.9785 214.123 43.143C214.013 43.3076 213.856 43.4359 213.674 43.5116C213.491 43.5873 213.29 43.6071 213.095 43.5685C212.901 43.5299 212.723 43.4346 212.583 43.2947C212.443 43.1547 212.348 42.9764 212.309 42.7823C212.271 42.5882 212.29 42.387 212.366 42.2042C212.442 42.0213 212.57 41.8651 212.735 41.7551C212.899 41.6452 213.093 41.5865 213.291 41.5865C213.423 41.5816 213.556 41.6041 213.679 41.6527C213.803 41.7013 213.915 41.7748 214.009 41.8687C214.103 41.9626 214.177 42.0749 214.225 42.1985C214.274 42.3221 214.296 42.4544 214.291 42.5871ZM214.187 49.1131H212.394V44.1533H214.187V49.1131Z" fill="#727272"/>
<path d="M220.09 46.2852V49.0957H218.302V46.3809C218.302 45.985 218.098 45.7109 217.737 45.7109C217.593 45.7113 217.453 45.7524 217.332 45.8294C217.211 45.9064 217.115 46.0162 217.054 46.146V49.1044H215.266V44.1447H216.862L216.949 44.6406C217.095 44.4402 217.289 44.2802 217.514 44.1758C217.738 44.0715 217.986 44.0263 218.233 44.0446C219.46 44.0359 220.09 44.9017 220.09 46.2852Z" fill="#727272"/>
<path d="M223.301 44.1358H224.606V45.6324H223.301V47.0812C223.298 47.153 223.311 47.2245 223.338 47.291C223.365 47.3575 223.407 47.4173 223.459 47.4665C223.511 47.5156 223.574 47.5528 223.642 47.5757C223.71 47.5986 223.782 47.6065 223.854 47.5989C224.057 47.6004 224.258 47.5542 224.441 47.464L224.876 48.865C224.519 49.0854 224.108 49.2 223.688 49.1956C222.344 49.1956 221.513 48.4342 221.513 47.1029V45.6324H220.678V44.1358H221.513V42.5087H223.306L223.301 44.1358Z" fill="#727272"/>
<path d="M228.623 44.6494L228.723 44.136H230.315V49.0957H228.723L228.623 48.591C228.471 48.7913 228.273 48.9512 228.046 49.0567C227.818 49.1622 227.568 49.21 227.317 49.1958C226.043 49.1958 225.186 48.1038 225.186 46.6158C225.186 45.1279 226.056 44.0359 227.317 44.0359C227.569 44.0212 227.82 44.0696 228.048 44.1767C228.276 44.2839 228.473 44.4463 228.623 44.6494ZM226.978 46.6158C226.978 47.2771 227.291 47.6469 227.779 47.6469C227.931 47.6487 228.081 47.6092 228.213 47.5326C228.344 47.456 228.453 47.3452 228.527 47.2119V46.0633C228.453 45.93 228.344 45.8192 228.213 45.7426C228.081 45.666 227.931 45.6265 227.779 45.6283C227.291 45.5847 226.978 45.9546 226.978 46.6158Z" fill="#727272"/>
<path d="M235.27 44.5841L234.648 45.7805C234.306 45.5169 233.891 45.365 233.46 45.3454C233.138 45.3454 233.003 45.4411 233.003 45.6065C233.003 45.7718 233.107 45.8414 233.79 46.0067C234.761 46.2504 235.248 46.7072 235.248 47.4685C235.248 48.4996 234.378 49.2088 232.951 49.2088C232.265 49.2294 231.59 49.0313 231.023 48.6432L231.659 47.425C232.024 47.7324 232.486 47.9018 232.964 47.9036C233.294 47.9036 233.46 47.8253 233.46 47.6426C233.46 47.4598 233.373 47.3598 232.777 47.2075C231.728 46.9465 231.211 46.5375 231.211 45.7674C231.211 44.7363 232.028 44.0272 233.46 44.0272C234.107 44.0133 234.742 44.2086 235.27 44.5841Z" fill="#727272"/>
<path d="M125.552 17.7885L122.471 21.3603C122.014 20.7328 121.414 20.2226 120.721 19.8717C120.029 19.5208 119.263 19.3391 118.486 19.3416C115.532 19.3416 113.644 21.5648 113.644 24.6973C113.644 27.8297 115.532 30.0834 118.486 30.0834C119.263 30.0859 120.029 29.9042 120.721 29.5533C121.414 29.2024 122.014 28.6922 122.471 28.0647L125.517 31.6365C123.576 33.7858 121.349 34.5645 118.477 34.5645C112.756 34.5645 108.641 30.3183 108.641 24.6973C108.641 19.0762 112.756 14.8605 118.477 14.8605C121.671 14.8605 123.663 15.8176 125.552 17.7885Z" fill="#243982"/>
<path d="M140.753 27.6513C140.753 31.6104 137.707 34.4862 133.635 34.4862C129.563 34.4862 126.539 31.6104 126.539 27.6513C126.539 23.6923 129.541 20.7643 133.635 20.7643C137.729 20.7643 140.753 23.6879 140.753 27.6513ZM131.355 27.6513C131.355 29.2828 132.26 30.3705 133.635 30.3705C135.01 30.3705 135.936 29.2828 135.936 27.6513C135.936 26.0199 135.005 24.88 133.635 24.88C132.265 24.88 131.355 25.9938 131.355 27.6513Z" fill="#243982"/>
<path d="M147.692 34.2251H142.906V14.5515H147.692V34.2251Z" fill="#243982"/>
<path d="M155.383 34.2251H150.619V14.5515H155.383V34.2251Z" fill="#243982"/>
<path d="M171.772 27.6513C171.772 31.6104 168.727 34.4862 164.654 34.4862C160.582 34.4862 157.559 31.6104 157.559 27.6513C157.559 23.6923 160.561 20.7643 164.654 20.7643C168.748 20.7643 171.772 23.6879 171.772 27.6513ZM162.375 27.6513C162.375 29.2828 163.28 30.3705 164.654 30.3705C166.029 30.3705 166.956 29.2828 166.956 27.6513C166.956 26.0199 166.025 24.88 164.654 24.88C163.284 24.88 162.375 25.9938 162.375 27.6513Z" fill="#243982"/>
<path d="M182.158 25.476H181.766C181.181 25.4616 180.599 25.5797 180.066 25.8216C179.533 26.0634 179.061 26.4227 178.686 26.8726V34.2252H173.922V21.0253H178.142L178.429 22.7047C178.828 22.0843 179.381 21.5788 180.035 21.2385C180.689 20.8981 181.421 20.7346 182.158 20.7643V25.476Z" fill="#243982"/>
<path d="M198.642 33.8337H193.878V18.5194H198.642V33.8337Z" fill="#243982"/>
<path d="M200.896 14.4558V19.2415H189.323V14.4558H200.896Z" fill="#243982"/>
<path d="M202.945 14.4558V19.2415H191.372V14.4558H202.945Z" fill="#243982"/>
<path d="M104.342 50.6271H104.046C104.851 37.1924 99.6301 19.2068 66.5652 17.0967C22.937 14.3123 28.1055 35.674 59.5259 50.6271H49.9066C11.473 32.3153 5.16026 6.22014 58.4774 9.61364C98.9122 12.2023 105.334 34.2035 104.342 50.6271Z" fill="url(#paint0_linear_938_1536)"/>
<path opacity="0.39" d="M104.106 50.627H103.545C104.224 39.4154 99.8428 24.4057 72.251 22.6437C35.8709 20.3248 40.1781 38.132 66.3994 50.627H59.6037C28.166 35.6739 22.9974 14.3122 66.6039 17.0966C99.6644 19.2067 104.92 37.1922 104.106 50.627Z" fill="#DF0C1A"/>
<path opacity="0.39" d="M104.106 50.627H103.545C104.224 39.4154 99.8428 24.4057 72.251 22.6437C35.8709 20.3248 40.1781 38.132 66.3994 50.627H59.6037C28.166 35.6739 22.9974 14.3122 66.6039 17.0966C99.6644 19.2067 104.92 37.1922 104.106 50.627Z" fill="#DF0C1A"/>
<path d="M104.106 50.627H103.545C104.224 39.4154 99.8428 24.4057 72.251 22.6437C35.8709 20.3248 40.1781 38.132 66.3994 50.627H59.6037C28.166 35.6739 22.9974 14.3122 66.6039 17.0966C99.6644 19.2067 104.92 37.1922 104.106 50.627Z" fill="url(#paint1_linear_938_1536)"/>
<path d="M48.6102 50.4878H37.1027C-10.2322 28.1038 -18.0068 -3.78643 47.6661 0.368429C94.7226 3.34862 104.381 27.5251 104.264 47.1117C104.168 30.9882 95.8973 11.406 57.3637 8.9566C2.95022 5.51959 9.39787 31.941 48.6102 50.4878Z" fill="white"/>
<path d="M49.902 50.6272H38.6251C-7.7527 28.5259 -15.3707 -2.964 48.9753 1.1343C95.0878 4.07968 104.546 27.956 104.416 47.2946C104.32 31.3756 96.2189 12.0544 58.4597 9.6137C5.16435 6.2202 11.4815 32.3153 49.902 50.6272Z" fill="#2A3178"/>
<path d="M103.824 48.5561C103.824 49.2565 103.824 49.9483 103.776 50.627H72.7258C50.8072 40.242 47.2093 25.4411 77.6159 27.3685C98.599 28.7128 103.546 39.1543 103.815 48.0471C103.824 48.2124 103.824 48.3821 103.824 48.5561Z" fill="#23397D"/>
<path d="M103.872 48.0471C103.585 39.15 98.6514 28.7041 77.6987 27.3685C47.3182 25.4412 50.9161 40.2377 72.8129 50.627H66.5001C40.157 38.1276 35.8281 20.3248 72.3779 22.6437C98.0205 24.2708 103.707 37.2357 103.872 48.0471Z" fill="#2CAB6A"/>
<path d="M74.2526 36.7486L73.3564 38.3105C72.8355 37.8875 72.187 37.6529 71.5161 37.6448C70.9853 37.6448 70.585 37.8406 70.585 38.1843C70.585 38.4584 70.7721 38.6542 71.7336 38.85C73.6914 39.2459 74.2309 39.9246 74.2309 41.0253C74.2309 42.4784 73.1693 43.4442 71.3812 43.4442C70.3196 43.4762 69.2824 43.1223 68.4619 42.4479L69.4626 40.9165C69.9839 41.4479 70.6934 41.7527 71.4378 41.7649C72.0773 41.7649 72.3644 41.5604 72.3644 41.208C72.3644 40.8556 72.1556 40.7164 71.1811 40.5163C69.2363 40.116 68.7055 39.3285 68.7055 38.2844C68.7055 36.9792 69.8846 35.9655 71.5291 35.9655C72.4952 35.9456 73.4447 36.2186 74.2526 36.7486Z" fill="white"/>
<path d="M77.7594 38.2843H79.0864V39.7983H77.7594V41.2645C77.7547 41.3375 77.7659 41.4107 77.7922 41.4789C77.8185 41.5472 77.8594 41.6089 77.9119 41.6598C77.9645 41.7107 78.0275 41.7496 78.0966 41.7737C78.1657 41.7979 78.2392 41.8067 78.312 41.7996C78.5159 41.8036 78.7176 41.7573 78.8993 41.6647L79.3344 43.0787C78.9743 43.3026 78.5576 43.4188 78.1336 43.4137C76.7762 43.4137 75.9583 42.648 75.9583 41.2993V39.8157H75.1143V38.2843H75.9583V36.6615H77.7682L77.7594 38.2843Z" fill="white"/>
<path d="M85.525 40.8165C85.5432 41.3544 85.4003 41.8854 85.1148 42.3416C84.8292 42.7977 84.4138 43.1582 83.922 43.3767C83.4302 43.5953 82.8844 43.662 82.3544 43.5683C81.8244 43.4746 81.3345 43.2248 80.9475 42.8508C80.5605 42.4769 80.2939 41.9959 80.1821 41.4694C80.0702 40.943 80.1181 40.3952 80.3196 39.8961C80.5211 39.3971 80.8671 38.9696 81.3132 38.6685C81.7592 38.3674 82.2851 38.2064 82.8232 38.2061C83.175 38.1882 83.5268 38.2427 83.8566 38.3664C84.1865 38.49 84.4874 38.6801 84.7407 38.9249C84.9941 39.1696 85.1944 39.4638 85.3293 39.7892C85.4642 40.1146 85.5308 40.4643 85.525 40.8165ZM81.9575 40.8165C81.9575 41.4386 82.3012 41.8519 82.8276 41.8519C82.9549 41.847 83.0797 41.8155 83.1941 41.7595C83.3085 41.7036 83.4099 41.6243 83.4918 41.5268C83.5737 41.4293 83.6344 41.3157 83.6698 41.1934C83.7053 41.0711 83.7148 40.9427 83.6977 40.8165C83.6977 40.19 83.341 39.768 82.8276 39.768C82.3142 39.768 81.9575 40.19 81.9575 40.8165Z" fill="white"/>
<path d="M89.9504 39.994H89.8025C89.5798 39.9875 89.3587 40.0319 89.1558 40.1239C88.953 40.2159 88.7739 40.353 88.6321 40.5248V43.3135H86.8223V38.2842H88.4233L88.5321 38.9237C88.6838 38.6879 88.8945 38.4956 89.1432 38.3659C89.3919 38.2362 89.6701 38.1736 89.9504 38.1841V39.994Z" fill="white"/>
<path d="M95.8583 40.7293V41.2427H92.6693C92.6693 41.6777 93.0608 41.9475 93.6134 41.9475C93.7914 41.9506 93.9679 41.913 94.1292 41.8376C94.2905 41.7622 94.4325 41.651 94.5444 41.5124L95.7539 42.3825C95.4893 42.7121 95.1501 42.9739 94.7643 43.1464C94.3784 43.3189 93.9571 43.3971 93.5351 43.3745C93.1827 43.3957 92.8297 43.3434 92.4986 43.2209C92.1676 43.0984 91.8656 42.9084 91.6119 42.6629C91.3582 42.4174 91.1584 42.1218 91.0251 41.7949C90.8918 41.468 90.828 41.117 90.8377 40.7641C90.8249 40.4178 90.8836 40.0727 91.0103 39.7502C91.1369 39.4277 91.3288 39.1348 91.5737 38.8898C91.8187 38.6448 92.1116 38.453 92.4341 38.3263C92.7566 38.1997 93.1018 38.1409 93.448 38.1537C95.11 38.2016 95.8583 39.3632 95.8583 40.7293ZM92.6693 40.229H94.0658C94.0723 40.1348 94.0597 40.0404 94.0288 39.9512C93.9979 39.8621 93.9493 39.7801 93.8859 39.7102C93.8225 39.6404 93.7456 39.584 93.6599 39.5445C93.5742 39.5051 93.4814 39.4834 93.3871 39.4806C93.2902 39.4806 93.1943 39.5001 93.1052 39.538C93.0161 39.576 92.9355 39.6316 92.8685 39.7015C92.8014 39.7715 92.7492 39.8542 92.7149 39.9449C92.6807 40.0355 92.6652 40.1322 92.6693 40.229Z" fill="white"/>
<path d="M213.064 26.716V25.041C212.814 25.0535 212.578 25.1591 212.403 25.3368C212.02 25.6544 211.724 25.5718 211.346 25.1367C210.967 24.7016 210.475 24.7016 209.988 25.2498C209.853 25.41 209.691 25.5454 209.51 25.6501C209.458 25.6693 209.404 25.6796 209.349 25.6805C209.294 25.6792 209.239 25.6689 209.188 25.6501C209.006 25.5454 208.844 25.41 208.709 25.2498C208.204 24.6842 207.739 24.706 207.356 25.1367C206.973 25.5674 206.677 25.6544 206.294 25.3368C206.12 25.1594 205.886 25.0538 205.637 25.041V26.716C205.637 26.716 205.603 27.0379 206.007 27.151C206.481 27.2642 209.179 27.9342 208.344 29.7223C207.508 31.5104 207.038 33.9728 208.626 34.2426C208.861 34.2815 209.098 34.3048 209.336 34.3122H209.366C209.604 34.3045 209.841 34.2813 210.075 34.2426C211.667 33.9728 211.189 31.5104 210.354 29.7223C209.518 27.9342 212.224 27.2816 212.69 27.151C213.155 27.0205 213.064 26.716 213.064 26.716ZM209.349 33.3986C209.201 33.3986 209.058 33.3549 208.935 33.2732C208.813 33.1914 208.718 33.0752 208.661 32.9393C208.605 32.8034 208.59 32.6538 208.619 32.5095C208.648 32.3651 208.718 32.2326 208.822 32.1285C208.927 32.0245 209.059 31.9536 209.203 31.9249C209.348 31.8962 209.497 31.911 209.633 31.9673C209.769 32.0236 209.885 32.1189 209.967 32.2413C210.049 32.3636 210.093 32.5075 210.093 32.6546C210.093 32.8519 210.014 33.0411 209.875 33.1807C209.735 33.3202 209.546 33.3986 209.349 33.3986Z" fill="#243982"/>
<path d="M213.151 24.2926C212.911 24.3053 212.679 24.3885 212.486 24.5319C212.094 24.7929 211.794 24.7233 211.402 24.3709C211.011 24.0185 210.532 23.9967 210.028 24.4623C209.884 24.5968 209.719 24.707 209.54 24.7886C209.487 24.806 209.431 24.8148 209.375 24.8147C209.32 24.8152 209.266 24.8064 209.214 24.7886C209.035 24.707 208.87 24.5968 208.727 24.4623C208.213 23.9967 207.739 24.0272 207.348 24.3709C206.956 24.7146 206.656 24.806 206.269 24.5319C206.076 24.384 205.841 24.3003 205.599 24.2926V20.129H213.16V24.2926H213.151Z" fill="#243982"/>
<defs>
<linearGradient id="paint0_linear_938_1536" x1="19.7784" y1="29.9703" x2="104.433" y2="29.9703" gradientUnits="userSpaceOnUse">
<stop stop-color="#DF0C1A"/>
<stop offset="1" stop-color="#E5511D"/>
</linearGradient>
<linearGradient id="paint1_linear_938_1536" x1="34.9573" y1="33.7378" x2="104.18" y2="33.7378" gradientUnits="userSpaceOnUse">
<stop stop-color="#F8E726"/>
<stop offset="1" stop-color="#DADA25"/>
</linearGradient>
</defs>
</svg>
